<?xml version="1.0" encoding="UTF-8"?>
<svg width="44px" height="44px" viewBox="0 0 44 44" version="1.1" xmlns="http://www.w3.org/2000/svg" xmlns:xlink="http://www.w3.org/1999/xlink">
    <title>github</title>
    <g id="页面-1" stroke="none" stroke-width="1" fill="none" fill-rule="evenodd">
        <g id="【二级页】PC_Banner备份复制备份-10" transform="translate(-461.000000, -1263.000000)">
            <g id="github" transform="translate(461.000000, 1263.000000)">
                <rect id="矩形" fill="#FFFFFF" opacity="0.597726004" x="0" y="0" width="44" height="44"></rect>
                <g id="编组-42" transform="translate(3.000000, 2.000000)" stroke="#061931" stroke-linejoin="round" stroke-width="2">
                    <path d="M19.9575023,1.96593984 C17.6514948,1.96593984 15.4194814,2.21414224 13.2614621,2.71054704 C11.0132708,0.903515681 8.63143817,-1.50407686e-13 6.11596429,-1.50407686e-13 C5.2420868,2.0096488 5.13016161,4.32666084 5.78018871,6.95103615 C3.17167911,9.89076335 2.46918282,13.7170646 3.67269982,18.4299398 C5.17608065,23.5951655 9.01532488,26.3515454 15.1904325,26.6990796 C13.9044522,27.6453458 13.2614621,28.868848 13.2614621,30.3695862 C13.2614621,31.9280215 13.2614621,33.0968481 13.2614621,33.8760658 C13.2614621,35.27826 13.2614621,37.3815514 13.2614621,40.1859398" id="路径-37"></path>
                    <path d="M36.8122587,1.96593984 C34.5062512,1.96593984 32.2742378,2.21414224 30.1162185,2.71054704 C27.8680272,0.903515681 25.4861946,-1.50407686e-13 22.9707207,-1.50407686e-13 C22.0968432,2.0096488 21.984918,4.32666084 22.6349451,6.95103615 C20.0264355,9.89076335 19.3239392,13.7170646 20.5274562,18.4299398 C22.0308371,23.5951655 25.8700813,26.3515454 32.0451889,26.6990796 C30.7592086,27.6453458 30.1162185,28.868848 30.1162185,30.3695862 C30.1162185,31.8703243 30.1162185,35.1424422 30.1162185,40.1859398" id="路径-37" transform="translate(28.384880, 20.092970) scale(-1, 1) translate(-28.384880, -20.092970) "></path>
                    <path d="M13.3263529,32.1801037 C10.1714324,32.9640604 6.59107711,32.9586015 4.3205227,29.8185065 C2.80681976,27.7251099 1.36664553,26.4485379 -3.80197207e-13,25.9887906" id="路径-39" stroke-linecap="round"></path>
                </g>
            </g>
        </g>
    </g>
</svg>