<svg xmlns="http://www.w3.org/2000/svg" width="32" height="32" fill="currentColor" stroke="none" viewBox="0 0 32 32">
  <path fill-rule="evenodd" d="M13.3333333,0 C20.6971491,0 26.6666667,5.96951754 26.6666667,13.3333333 C26.6666667,16.4821425 25.5751608,19.3760089 23.7498682,21.6572136 L31.566503,29.473435 C32.1083742,30.0153039 32.1422412,30.8727788 31.6681039,31.4540984 L31.566503,31.5665049 C30.9885533,32.1444984 30.05142,32.1444984 29.4734703,31.5665049 L21.6572136,23.7498682 C19.3760089,25.5751608 16.4821425,26.6666667 13.3333333,26.6666667 C5.96951754,26.6666667 0,20.6971491 0,13.3333333 C0,5.96951754 5.96951754,0 13.3333333,0 Z M13.3333333,2.66666667 C11.8920889,2.66666667 10.4954667,2.94826667 9.18226667,3.50373333 C7.9124,4.04084444 6.77137778,4.81031111 5.79084444,5.79084444 C4.81031111,6.77137778 4.04084444,7.9124 3.50373333,9.18226667 C2.94826667,10.4954667 2.66666667,11.8920889 2.66666667,13.3333333 C2.66666667,14.7745778 2.94826667,16.1712 3.50373333,17.4844 C4.04084444,18.7542667 4.81031111,19.8952889 5.79084444,20.8758222 C6.77137778,21.8563556 7.9124,22.6258222 9.18226667,23.1629333 C10.4954667,23.7184 11.8920889,24 13.3333333,24 C14.7745778,24 16.1712,23.7184 17.4844,23.1629333 C18.7542667,22.6258222 19.8952889,21.8563556 20.8758222,20.8758222 C21.8563556,19.8952889 22.6258222,18.7542667 23.1629333,17.4844 C23.7183556,16.1712 24,14.7745778 24,13.3333333 C24,11.8920889 23.7183556,10.4954667 23.1629333,9.18226667 C22.6258222,7.9124 21.8563556,6.77137778 20.8758222,5.79084444 C19.8952889,4.81031111 18.7542667,4.04084444 17.4844,3.50373333 C16.1712,2.94826667 14.7745778,2.66666667 13.3333333,2.66666667 Z"/>
</svg>
