<?xml version="1.0" encoding="UTF-8"?>
<svg width="80px" height="80px" viewBox="0 0 80 80" version="1.1" xmlns="http://www.w3.org/2000/svg" xmlns:xlink="http://www.w3.org/1999/xlink">
    <title>前往pc端-pad</title>
    <g id="页面-1" stroke="none" stroke-width="1" fill="none" fill-rule="evenodd">
        <g id="画板" transform="translate(-588.000000, -1216.000000)">
            <g id="编组-3" transform="translate(588.000000, 1216.000000)">
                <rect id="矩形" fill="#F8F8F8" x="0" y="0" width="80" height="80" rx="40"></rect>
                <g id="编组-2" transform="translate(24.000000, 30.000000)">
                    <path d="M12.8421053,0 C15.564584,0 17.9213101,1.59393751 19.0606703,3.91499208 C19.8035565,3.60145963 20.6187844,3.42857143 21.4736842,3.42857143 C24.9617984,3.42857143 27.7894737,6.30674089 27.7894737,9.85714286 C27.7894737,9.90680822 27.7889204,9.95634203 27.7878196,10.0057383 C30.2020209,10.5847911 32,12.7929615 32,15.4285714 C32,18.5055865 29.5493481,21 26.5263158,21 C26.2474051,21 25.9733666,20.9787669 25.7056755,20.9378022 L25.7052938,21 L6.73684211,21 C2.99707671,20.8832884 0,17.7621823 0,13.9285714 C0,10.3867882 2.55814851,7.45316198 5.8963534,6.93753655 C5.96576561,3.09419706 9.04893059,0 12.8421053,0 Z" id="形状结合" stroke="#CCCCCC" stroke-width="2"></path>
                    <polygon id="矩形" fill="#F2F2F2" points="23 19 26.4609172 19 26.4609172 20 23 20"></polygon>
                    <g id="编组" transform="translate(12.000000, 6.000000)" fill="#CCCCCC">
                        <rect id="矩形" x="3.41073608" y="0.963504028" width="2" height="8.8"></rect>
                        <rect id="矩形" transform="translate(3.000000, 8.000000) rotate(-45.000000) translate(-3.000000, -8.000000) " x="2" y="5" width="2" height="6"></rect>
                        <polygon id="矩形" points="8.65685425 6.58578644 7.24264069 5.17157288 3 9.41421356 4.41421356 10.8284271"></polygon>
                    </g>
                </g>
            </g>
        </g>
    </g>
</svg>