<?xml version="1.0" encoding="UTF-8"?>
<svg width="44px" height="44px" viewBox="0 0 44 44" version="1.1" xmlns="http://www.w3.org/2000/svg" xmlns:xlink="http://www.w3.org/1999/xlink">
    <title>社群</title>
    <g id="页面-1" stroke="none" stroke-width="1" fill="none" fill-rule="evenodd">
        <g id="【二级页】PC_Banner备份复制备份-10" transform="translate(-1051.000000, -1263.000000)">
            <rect fill="#FFFFFF" x="0" y="0" width="1600" height="5194"></rect>
            <g id="编组-44" transform="translate(1051.000000, 1263.000000)">
                <rect id="矩形备份-30" fill="#FFFFFF" opacity="0.597726004" x="0" y="0" width="44" height="44"></rect>
                <g id="编组-41" transform="translate(1.000000, 4.000000)">
                    <path d="M15.0327186,0 C23.3350599,0 30.0654372,5.3843019 30.0654372,12.0261749 C30.0654372,18.6680479 23.3350599,24.0523498 15.0327186,24.0523498 C13.3640671,24.0523498 11.7589154,23.8348496 10.259144,23.4333537 L6.01308745,25.5556217 L6.87024401,22.1268015 C2.7356662,19.984021 0,16.2606776 0,12.0261749 C0,5.3843019 6.73037738,0 15.0327186,0 Z" id="形状结合" stroke="#061931" stroke-width="2" fill="#FFFFFF"></path>
                    <path d="M28.5621654,9.52290304 C32.1425358,9.52290304 35.3796242,10.8006821 37.7244598,12.8524133 C40.120885,14.9492854 41.5883403,17.8503633 41.5883403,21.0458061 C41.5883403,24.7906536 39.5703449,28.1370659 36.4035453,30.2499846 L36.4035453,30.2499846 L37.5761459,34.9385205 L32.0163102,32.1594748 C30.916899,32.4260223 29.7585637,32.5687091 28.5621654,32.5687091 C24.981795,32.5687091 21.7447066,31.29093 19.399871,29.2391989 C17.0034457,27.1423268 15.5359905,24.2412488 15.5359905,21.0458061 C15.5359905,17.8503633 17.0034457,14.9492854 19.399871,12.8524133 C21.7447066,10.8006821 24.981795,9.52290304 28.5621654,9.52290304 Z" id="形状结合" stroke="#061931" stroke-width="2" fill="#FFFFFF"></path>
                    <circle id="椭圆形" fill="#061931" cx="9.31635931" cy="7.81308745" r="1.8"></circle>
                    <path d="M20.5908983,9.61308745 C21.5850108,9.61308745 22.3908983,8.8072 22.3908983,7.81308745 C22.3908983,6.8189749 21.5850108,6.01308745 20.5908983,6.01308745 C19.5967857,6.01308745 18.7908983,6.8189749 18.7908983,7.81308745 C18.7908983,8.8072 19.5967857,9.61308745 20.5908983,9.61308745 Z" id="椭圆形备份-7" fill="#061931"></path>
                    <circle id="椭圆形备份-8" fill="#061931" cx="24.0490779" cy="18.0359905" r="1.5"></circle>
                    <circle id="椭圆形备份-9" fill="#061931" cx="33.0687091" cy="18.0359905" r="1.5"></circle>
                </g>
            </g>
        </g>
    </g>
</svg>